<?xml version="1.0" encoding="UTF-8"?>
<!DOCTYPE svg PUBLIC "-//W3C//DTD SVG 1.1//EN" "http://www.w3.org/Graphics/SVG/1.1/DTD/svg11.dtd">
<!-- Creator: CorelDRAW 2020 (64-Bit) -->
<svg xmlns="http://www.w3.org/2000/svg" xml:space="preserve" width="37.3435mm" height="39.2679mm" version="1.1" style="shape-rendering:geometricPrecision; text-rendering:geometricPrecision; image-rendering:optimizeQuality; fill-rule:evenodd; clip-rule:evenodd"
viewBox="0 0 92.71 97.48"
 xmlns:xlink="http://www.w3.org/1999/xlink"
 xmlns:xodm="http://www.corel.com/coreldraw/odm/2003">
 <defs>
  <style type="text/css">
   <![CDATA[
    .str0 {stroke:#FFD29B;stroke-width:0.5;stroke-miterlimit:22.9256}
    .fil0 {fill:#FFD29B;fill-rule:nonzero}
   ]]>
  </style>
 </defs>
 <g id="Capa_x0020_1">
  <metadata id="CorelCorpID_0Corel-Layer"/>
  <g id="_1551072068368">
   <path class="fil0 str0" d="M41.78 0.37c1.52,-0.04 3.04,-0.08 4.56,-0.11 0.01,0.53 0.03,1.07 0.04,1.6 -0.21,0.01 -0.41,0.01 -0.62,0.02 -0.15,-0.34 -0.24,-0.8 -0.62,-0.95 -0.58,-0.06 -1.16,0.01 -1.74,0.01 0.02,0.75 0.04,1.5 0.06,2.26 0.37,-0.01 0.75,0 1.12,-0.05 0.28,-0.09 0.27,-0.44 0.35,-0.67 0.21,-0.01 0.41,-0.02 0.62,-0.04 0.02,0.66 0.03,1.33 0.05,1.99 -0.2,0 -0.4,0.01 -0.6,0.01 -0.11,-0.22 -0.13,-0.6 -0.43,-0.65 -0.36,-0.03 -0.73,0 -1.1,0.01 0.02,0.84 0.04,1.67 0.06,2.51 0.58,-0.04 1.17,0.02 1.74,-0.09 0.43,-0.22 0.45,-0.79 0.6,-1.2 0.21,-0.01 0.42,-0.01 0.63,-0.02 -0.02,0.61 -0.04,1.23 -0.05,1.84 -1.51,0.04 -3.01,0.08 -4.52,0.12 -0,-0.09 -0.01,-0.28 -0.02,-0.38 0.26,-0.09 0.6,-0.23 0.53,-0.58 -0.03,-1.6 -0.05,-3.21 -0.14,-4.82 0,-0.3 -0.33,-0.34 -0.54,-0.43 -0,-0.09 -0.01,-0.28 -0.01,-0.38z"/>
   <path class="fil0 str0" d="M49.3 0.66c1.02,-0.52 2.21,-0.21 3.25,0.11 -0.04,0.48 -0.07,0.97 -0.11,1.45 -0.21,-0.02 -0.42,-0.03 -0.62,-0.05 -0.11,-0.37 -0.21,-0.82 -0.57,-1.03 -0.53,-0.28 -1.26,-0.2 -1.66,0.27 -0.56,0.63 -0.71,1.5 -0.77,2.31 -0.03,0.73 -0.03,1.52 0.34,2.18 0.32,0.58 1.15,0.77 1.7,0.44 0.42,-0.37 0.32,-1.01 0.32,-1.51 0.01,-0.42 -0.72,-0.36 -0.47,-0.86 0.69,0.04 1.38,0.11 2.07,0.15 -0,0.09 -0.02,0.28 -0.02,0.38 -0.17,0.08 -0.41,0.14 -0.44,0.36 -0.16,0.74 -0.13,1.51 -0.22,2.27 -0.16,0.03 -0.33,0.06 -0.49,0.1 -0.1,-0.12 -0.2,-0.24 -0.3,-0.37 -0.98,0.41 -2.29,0.32 -3.02,-0.52 -0.66,-0.8 -0.68,-1.91 -0.6,-2.89 0.1,-1.09 0.57,-2.27 1.6,-2.78z"/>
   <g>
    <path class="fil0 str0" d="M34.93 1.45c0.97,-0.16 1.93,-0.38 2.91,-0.49 0.72,-0.08 1.58,0.15 1.86,0.89 0.44,0.9 0.04,2.02 -0.82,2.5 0.91,0.41 1.29,1.43 2.03,2.04 0.16,0.14 0.39,0.14 0.59,0.18 0.02,0.09 0.05,0.28 0.07,0.38 -0.47,0.08 -0.94,0.17 -1.41,0.26 -0.71,-0.68 -1.2,-1.54 -1.88,-2.24 -0.3,-0.29 -0.73,-0.08 -1.09,-0.05 0.13,0.64 0.2,1.29 0.37,1.92 0.07,0.42 0.78,0.17 0.67,0.72 -0.72,0.13 -1.43,0.26 -2.15,0.38 -0.02,-0.09 -0.05,-0.28 -0.06,-0.37 0.22,-0.13 0.54,-0.28 0.43,-0.6 -0.24,-1.56 -0.53,-3.12 -0.83,-4.67 -0.02,-0.34 -0.34,-0.43 -0.62,-0.45 -0.02,-0.09 -0.05,-0.28 -0.07,-0.38zm1.7 0.32l0 0c0.15,0.85 0.3,1.71 0.45,2.56 0.51,-0.11 1.14,-0.13 1.49,-0.59 0.36,-0.53 0.25,-1.29 -0.11,-1.79 -0.47,-0.54 -1.24,-0.3 -1.83,-0.18z"/>
   </g>
   <g>
    <path class="fil0 str0" d="M53.78 6.03c1.05,-1.58 2.1,-3.16 3.15,-4.73 0.28,0.07 0.57,0.13 0.85,0.2 0.12,1.87 0.26,3.74 0.39,5.61 0.02,0.34 0.11,0.67 0.24,0.98l0.01 -0.16c0.23,0.13 0.29,0.32 0.18,0.58 -0.77,-0.17 -1.54,-0.35 -2.31,-0.53 0.03,-0.09 0.08,-0.27 0.11,-0.36 0.22,-0.06 0.59,0.01 0.64,-0.3 0.1,-0.44 0.02,-0.89 0.01,-1.33 -0.67,-0.16 -1.34,-0.33 -2.01,-0.46 -0.2,0.37 -0.48,0.72 -0.58,1.14 -0.17,0.48 0.7,0.47 0.4,0.97 -0.72,-0.14 -1.44,-0.32 -2.16,-0.49 0.02,-0.09 0.07,-0.28 0.09,-0.37 0.47,-0.01 0.76,-0.4 1,-0.75zm1.6 -1.05l0 0c0.55,0.13 1.1,0.26 1.65,0.39 -0.06,-0.9 -0.1,-1.81 -0.17,-2.71 -0.5,0.77 -0.99,1.55 -1.49,2.33z"/>
   </g>
   <path class="fil0 str0" d="M61 2.77c0.03,-0.09 0.1,-0.27 0.13,-0.36 0.67,0.24 1.35,0.46 2.03,0.68 -0.04,0.12 -0.07,0.25 -0.11,0.37 -0.26,-0.01 -0.59,-0.01 -0.66,0.3 -0.57,1.59 -1.11,3.2 -1.63,4.81 0.51,0.14 1,0.39 1.53,0.44 0.54,-0.11 0.75,-0.71 1.04,-1.11 0.2,0.07 0.41,0.14 0.61,0.21 -0.25,0.64 -0.51,1.29 -0.76,1.93 -1.39,-0.47 -2.77,-0.94 -4.16,-1.41 0.03,-0.09 0.09,-0.27 0.12,-0.36 0.27,-0 0.62,0 0.68,-0.34 0.53,-1.5 1.04,-3 1.53,-4.52 0.15,-0.3 -0.14,-0.5 -0.34,-0.66z"/>
   <path class="fil0 str0" d="M26.72 3.94c1.45,-0.45 2.87,-0.99 4.32,-1.44 0.15,0.51 0.33,1.01 0.5,1.51 -0.2,0.06 -0.39,0.13 -0.59,0.19 -0.24,-0.27 -0.45,-0.67 -0.85,-0.72 -0.58,0.1 -1.12,0.35 -1.68,0.53 0.25,0.71 0.48,1.43 0.72,2.14 0.35,-0.12 0.71,-0.21 1.04,-0.37 0.27,-0.16 0.14,-0.52 0.17,-0.77 0.19,-0.06 0.38,-0.13 0.56,-0.19 0.21,0.63 0.43,1.25 0.64,1.88 -0.19,0.06 -0.37,0.13 -0.56,0.19 -0.15,-0.18 -0.27,-0.41 -0.5,-0.51 -0.4,0.03 -0.77,0.23 -1.15,0.33 0.25,0.8 0.53,1.58 0.79,2.38 0.55,-0.18 1.12,-0.31 1.64,-0.58 0.36,-0.33 0.21,-0.89 0.23,-1.33 0.2,-0.07 0.39,-0.14 0.59,-0.21 0.18,0.59 0.34,1.18 0.5,1.77 -1.43,0.48 -2.86,0.97 -4.29,1.44 -0.37,-0.44 0.42,-0.55 0.24,-0.97 -0.49,-1.54 -1.01,-3.08 -1.55,-4.6 -0.08,-0.31 -0.41,-0.3 -0.67,-0.3 -0.04,-0.13 -0.07,-0.25 -0.1,-0.38z"/>
   <path class="fil0 str0" d="M20.51 7c1.56,-0.8 3.12,-1.6 4.68,-2.39 0.28,0.54 0.55,1.08 0.83,1.62 -0.19,0.09 -0.37,0.19 -0.55,0.28 -0.3,-0.29 -0.57,-0.69 -1.01,-0.76 -0.31,0.02 -0.58,0.22 -0.85,0.35 0.71,1.37 1.41,2.75 2.11,4.12 0.1,0.18 0.19,0.37 0.34,0.51 0.18,0.2 0.44,0.06 0.66,0.05 0.06,0.12 0.12,0.23 0.18,0.35 -0.7,0.35 -1.39,0.72 -2.1,1.06 -0.17,-0.24 -0.13,-0.44 0.09,-0.61 0.24,-0.22 0.03,-0.54 -0.07,-0.77 -0.72,-1.41 -1.45,-2.82 -2.17,-4.23 -0.26,0.15 -0.56,0.25 -0.77,0.47 -0.2,0.32 -0.07,0.71 -0.03,1.06 0.16,0.34 -0.33,0.35 -0.51,0.51 -0.28,-0.54 -0.56,-1.08 -0.83,-1.62z"/>
   <g>
    <path class="fil0 str0" d="M67.44 5.35c1.5,-0.42 3.34,0.82 3.23,2.45 -0.12,1.35 -0.8,2.69 -1.87,3.54 -1.21,0.97 -3.15,0.4 -3.85,-0.92 -0.44,-0.9 -0.17,-1.96 0.24,-2.82 0.46,-0.97 1.17,-1.94 2.25,-2.24zm0.54 0.66l0 0c-0.78,0.31 -1.22,1.08 -1.6,1.78 -0.38,0.78 -0.78,1.66 -0.53,2.54 0.26,0.83 1.41,1.09 2.03,0.49 0.96,-0.87 1.58,-2.14 1.73,-3.42 0.16,-0.89 -0.78,-1.72 -1.63,-1.39z"/>
   </g>
   <path class="fil0 str0" d="M71.02 11.57c0.24,-0.34 0.38,-0.74 0.58,-1.1 8.1,5.29 14.47,13.19 17.88,22.25 4.1,10.74 3.96,23.02 -0.38,33.66 -3.92,9.7 -11.24,17.99 -20.42,23.02 -0.19,-0.36 -0.4,-0.71 -0.61,-1.06 8.05,-4.44 14.66,-11.42 18.67,-19.69 5.07,-10.35 5.87,-22.68 2.25,-33.61 -3.11,-9.55 -9.57,-17.95 -17.97,-23.46z"/>
   <path class="fil0 str0" d="M8.32 22.99c3.36,-4.9 7.67,-9.15 12.63,-12.42 0.21,0.35 0.39,0.72 0.61,1.07 -6.76,4.49 -12.27,10.82 -15.75,18.15 -4.86,10.13 -5.66,22.1 -2.25,32.8 3.24,10.37 10.44,19.42 19.76,24.98 -0.19,0.36 -0.39,0.73 -0.6,1.08 -7.88,-4.72 -14.32,-11.82 -18.18,-20.15 -4.41,-9.41 -5.46,-20.33 -2.98,-30.42 1.31,-5.39 3.62,-10.53 6.76,-15.1z"/>
   <g>
    <path class="fil0 str0" d="M43.77 11.2c8.85,-0.63 17.89,1.97 25.03,7.26 7.18,5.24 12.42,13.08 14.47,21.73 1.54,6.41 1.37,13.22 -0.48,19.55 -2.41,8.3 -7.78,15.7 -14.91,20.58 -4.51,3.12 -9.71,5.23 -15.12,6.14 -6.09,1.03 -12.43,0.57 -18.3,-1.37 -8.43,-2.76 -15.8,-8.61 -20.43,-16.18 -4.46,-7.2 -6.35,-15.92 -5.35,-24.32 0.69,-5.92 2.81,-11.67 6.13,-16.62 4.74,-7.11 11.94,-12.55 20.1,-15.11 2.88,-0.91 5.86,-1.47 8.87,-1.68zm-8.49 2.84l0 0c0.65,2.02 1.33,4.04 2,6.06 -0.39,0.13 -0.77,0.25 -1.15,0.39 -0.71,-2.01 -1.34,-4.04 -2.02,-6.06 -6.84,2.41 -12.91,6.92 -17.23,12.74 1.47,1.06 2.95,2.12 4.42,3.18 -0.24,0.34 -0.48,0.67 -0.72,1 -1.47,-1.06 -2.94,-2.12 -4.42,-3.17 -2.87,4.13 -4.87,8.86 -5.83,13.79 -1.18,6.03 -0.83,12.36 1.04,18.22 1.97,-0.66 3.94,-1.33 5.92,-1.98 0.13,0.4 0.27,0.79 0.38,1.19 -1.98,0.62 -3.94,1.3 -5.9,1.97 1.05,2.91 2.45,5.7 4.2,8.26 1.79,-1.12 3.66,-2.12 5.58,-3 0.44,-0.21 0.92,-0.37 1.31,-0.68 4.24,-3.23 8.48,-6.46 12.72,-9.69 -0.51,-0.77 -0.93,-1.6 -1.27,-2.46 -4.4,1.48 -8.81,2.95 -13.21,4.43 -0.13,-0.39 -0.26,-0.78 -0.39,-1.17 4.41,-1.48 8.81,-2.96 13.22,-4.43 -0.24,-0.91 -0.39,-1.84 -0.44,-2.78 -1.63,0 -3.27,0 -4.9,0 -0,-0.41 -0,-0.82 0,-1.23 1.63,-0 3.27,0 4.9,-0 0.04,-0.9 0.21,-1.79 0.4,-2.67 -4.84,-1.54 -9.66,-3.13 -14.48,-4.7 0.13,-0.39 0.25,-0.78 0.38,-1.17 4.83,1.57 9.66,3.15 14.5,4.71 0.33,-0.93 0.8,-1.81 1.34,-2.64 -4.34,-3.12 -8.68,-6.24 -13.02,-9.36 0.24,-0.34 0.48,-0.67 0.72,-1.01 4.36,3.12 8.69,6.27 13.06,9.36 0.58,-0.73 1.27,-1.38 2,-1.97 -4.38,-5.88 -8.77,-11.77 -13.16,-17.65 0.33,-0.25 0.66,-0.49 0.99,-0.74 4.4,5.89 8.78,11.79 13.19,17.68 0.72,-0.47 1.49,-0.84 2.28,-1.16 -1.49,-4.5 -2.97,-9.01 -4.46,-13.51 0.39,-0.13 0.78,-0.26 1.17,-0.39 1.48,4.5 2.98,9.01 4.46,13.51 0.91,-0.23 1.84,-0.39 2.78,-0.44 0,-1.25 -0,-2.49 0,-3.74 0.41,0 0.82,0 1.23,-0 0.01,1.25 0,2.49 0,3.74 0.83,0.05 1.66,0.16 2.47,0.37 0.89,-2.87 1.74,-5.76 2.62,-8.64 0.39,0.12 0.79,0.24 1.18,0.36 -0.87,2.88 -1.74,5.75 -2.61,8.63 0.88,0.32 1.72,0.73 2.51,1.22 3.2,-4.57 6.4,-9.14 9.6,-13.72 0.34,0.24 0.67,0.47 1.01,0.71 -3.2,4.57 -6.4,9.15 -9.6,13.72 0.74,0.58 1.43,1.24 2.03,1.97 2.94,-2.19 5.86,-4.4 8.8,-6.58 0.24,0.33 0.49,0.66 0.73,0.99 -2.93,2.19 -5.86,4.38 -8.78,6.58 0.55,0.83 1.01,1.71 1.37,2.64 1.84,-0.66 3.69,-1.32 5.53,-1.98 0.14,0.39 0.28,0.78 0.41,1.16 -1.86,0.66 -3.71,1.33 -5.57,1.99 0.21,0.83 0.35,1.68 0.41,2.54 4.24,-0.06 8.47,-0.11 12.7,-0.17 0.01,0.41 0.01,0.82 0.02,1.23 -4.23,0.06 -8.47,0.11 -12.7,0.17 -0.04,0.91 -0.17,1.81 -0.37,2.69 6.45,2.01 12.89,4.05 19.33,6.07 -0.12,0.39 -0.25,0.79 -0.37,1.18 -6.44,-2.02 -12.88,-4.05 -19.32,-6.07 -0.3,0.81 -0.68,1.6 -1.12,2.34 2.88,2.13 5.75,4.27 8.64,6.39 -0.24,0.34 -0.48,0.67 -0.73,1 -2.87,-2.12 -5.74,-4.25 -8.6,-6.37 -1.65,2.18 -4,3.83 -6.64,4.57 0.94,-0.04 1.89,0.1 2.83,0.17 8.49,0.85 16.88,3.44 24.14,7.98 2.77,-4.04 4.68,-8.66 5.63,-13.46 1.2,-6.09 0.84,-12.49 -1.07,-18.4 -4.65,1.67 -9.3,3.33 -13.95,4.99 -0.14,-0.39 -0.28,-0.78 -0.42,-1.16 4.66,-1.67 9.32,-3.33 13.97,-5 -1.16,-3.2 -2.76,-6.25 -4.76,-9.01 -2.6,1.96 -5.21,3.9 -7.81,5.86 -0.25,-0.33 -0.49,-0.65 -0.74,-0.98 2.6,-1.97 5.21,-3.92 7.82,-5.87 -2.14,-2.77 -4.68,-5.25 -7.52,-7.29 -0.76,1.1 -1.53,2.2 -2.3,3.29 -0.34,-0.24 -0.67,-0.47 -1.01,-0.71 0.77,-1.1 1.54,-2.19 2.3,-3.29 -4.04,-2.73 -8.63,-4.65 -13.42,-5.58 -6.02,-1.19 -12.33,-0.83 -18.19,1.01zm7.51 24.2l0 0c3.21,1.45 5.69,4.41 6.61,7.81 0.75,2.74 0.5,5.74 -0.7,8.32 -1.19,2.58 -3.32,4.71 -5.9,5.9 1.99,0.6 4.14,0.68 6.16,0.18 2.17,-0.52 4.18,-1.7 5.7,-3.33 1.67,-1.78 2.75,-4.1 3.03,-6.53 0.29,-2.45 -0.23,-4.98 -1.47,-7.11 -1.28,-2.22 -3.33,-4 -5.72,-4.94 -2.43,-0.98 -5.2,-1.08 -7.7,-0.29zm-16.18 26.38l0 0c2.8,-1 5.7,-1.72 8.63,-2.26 2.48,-0.43 4.98,-0.79 7.49,-0.85 -2.51,-0.66 -4.79,-2.22 -6.44,-4.23 -3.24,2.44 -6.42,4.94 -9.69,7.34zm-9.93 6.04l0 0c4.19,5.76 10.07,10.26 16.74,12.76 6.35,2.41 13.37,2.97 20.04,1.67 9,-1.73 17.25,-7.01 22.6,-14.44 -8.56,-5.27 -18.62,-7.88 -28.64,-8.04 -10.71,-0.18 -21.59,2.39 -30.74,8.05z"/>
   </g>
   <path class="fil0 str0" d="M52.78 25.7c0.95,-3.17 1.94,-6.33 2.91,-9.5 0.39,0.12 0.79,0.24 1.18,0.36 -0.97,3.16 -1.94,6.33 -2.91,9.49 -0.39,-0.12 -0.78,-0.24 -1.17,-0.36z"/>
   <path class="fil0 str0" d="M45.5 18.4c0.41,-0.01 0.83,-0 1.24,0.01 -0.01,3.63 0,7.26 -0.01,10.89 -0.41,0 -0.83,0 -1.24,-0.01 0.02,-3.63 0.01,-7.26 0.01,-10.89z"/>
   <path class="fil0 str0" d="M13.38 38.02c1.29,0.42 2.59,0.84 3.88,1.26 -0.13,0.39 -0.25,0.78 -0.38,1.17 -1.29,-0.42 -2.59,-0.84 -3.88,-1.26 0.13,-0.39 0.25,-0.78 0.38,-1.18z"/>
   <path class="fil0 str0" d="M75.09 48.24c1.56,-0.02 3.13,-0.04 4.69,-0.06 0.01,0.41 0.01,0.82 0.02,1.23 -1.56,0.03 -3.13,0.04 -4.7,0.06 -0.01,-0.41 -0.01,-0.82 -0.02,-1.23z"/>
   <path class="fil0 str0" d="M14.03 48.63c3.87,-0 7.74,-0 11.61,0 0,0.41 0,0.82 0,1.23 -3.87,0 -7.74,0 -11.61,0 0,-0.41 0,-0.82 0,-1.23z"/>
   <path class="fil0 str0" d="M26.15 85.57c1.36,0.69 2.75,1.33 4.09,2.05 -0.25,0.47 -0.48,0.94 -0.71,1.42 -0.18,-0.1 -0.37,-0.19 -0.55,-0.28 0.02,-0.36 0.16,-0.79 -0.09,-1.1 -0.47,-0.36 -1.04,-0.55 -1.56,-0.83 -0.34,0.67 -0.67,1.35 -1,2.02 0.36,0.17 0.71,0.4 1.1,0.49 0.24,-0.07 0.38,-0.29 0.56,-0.45 0.18,0.09 0.36,0.19 0.54,0.29 -0.33,0.57 -0.58,1.18 -0.9,1.76 -0.17,-0.09 -0.34,-0.18 -0.52,-0.27 0,-0.24 0.14,-0.54 -0.04,-0.74 -0.31,-0.23 -0.67,-0.36 -1.01,-0.53 -0.37,0.75 -0.74,1.5 -1.12,2.25 0.55,0.24 1.06,0.61 1.64,0.73 0.45,-0.05 0.72,-0.49 1.03,-0.78 0.19,0.09 0.38,0.19 0.57,0.29 -0.33,0.52 -0.58,1.09 -0.94,1.59 -1.33,-0.7 -2.69,-1.33 -4.03,-2.02 0.07,-0.57 0.75,-0.07 0.89,-0.57 0.73,-1.41 1.43,-2.84 2.12,-4.27 0.18,-0.28 -0.06,-0.52 -0.25,-0.71 0.04,-0.09 0.13,-0.26 0.17,-0.34z"/>
   <g>
    <path class="fil0 str0" d="M63.61 87.61c0.68,-0.21 1.46,-0.14 2.04,0.3 0.68,0.5 1.09,1.28 1.37,2.06 0.3,0.83 0.46,1.77 0.15,2.62 -0.42,1.12 -1.72,1.77 -2.88,1.61 -0.91,-0.15 -1.58,-0.91 -1.97,-1.7 -0.48,-0.99 -0.83,-2.14 -0.5,-3.23 0.25,-0.82 0.98,-1.43 1.79,-1.65zm0.03 0.63l0 0c-0.71,0.15 -1.04,0.92 -0.95,1.59 0.12,1.03 0.52,2.03 1.1,2.89 0.36,0.54 1.04,0.99 1.71,0.71 0.61,-0.19 0.89,-0.88 0.83,-1.47 -0.08,-1.02 -0.48,-1.99 -1.03,-2.85 -0.36,-0.54 -0.97,-1.08 -1.66,-0.88z"/>
   </g>
   <path class="fil0 str0" d="M31.53 88.08c0.7,0.2 1.39,0.41 2.09,0.62 -0.04,0.12 -0.08,0.24 -0.11,0.36 -0.25,0.02 -0.59,0 -0.64,0.32 -0.53,1.61 -0.98,3.25 -1.48,4.87 0.51,0.13 1.01,0.35 1.54,0.4 0.55,-0.1 0.75,-0.73 1.02,-1.15 0.21,0.06 0.42,0.13 0.63,0.2 -0.25,0.64 -0.47,1.29 -0.7,1.94 -1.4,-0.41 -2.79,-0.85 -4.19,-1.25 0.03,-0.13 0.05,-0.26 0.09,-0.38 0.27,0.01 0.62,-0.03 0.67,-0.36 0.47,-1.5 0.92,-3 1.36,-4.51 0.26,-0.48 -0.59,-0.59 -0.26,-1.06z"/>
   <path class="fil0 str0" d="M55.35 89.96c0.7,-0.15 1.4,-0.31 2.11,-0.46 0.02,0.09 0.07,0.26 0.1,0.35 -0.26,0.15 -0.55,0.36 -0.41,0.71 0.33,1.63 0.71,3.25 1.06,4.88 0.52,-0.14 1.08,-0.17 1.57,-0.42 0.4,-0.37 0.26,-0.99 0.31,-1.48 0.21,-0.05 0.42,-0.09 0.63,-0.14 0.11,0.68 0.23,1.36 0.34,2.04 -1.43,0.32 -2.86,0.63 -4.29,0.94 -0.02,-0.09 -0.06,-0.27 -0.08,-0.37 0.18,-0.14 0.51,-0.26 0.42,-0.56 -0.3,-1.58 -0.67,-3.15 -1.03,-4.72 -0.03,-0.33 -0.36,-0.39 -0.63,-0.41 -0.02,-0.09 -0.07,-0.28 -0.09,-0.38z"/>
   <path class="fil0 str0" d="M39.05 91.64c0.39,-0.75 1.16,-1.3 2.01,-1.37 0.79,-0.06 1.58,0.15 2.32,0.43 -0.05,0.49 -0.11,0.97 -0.16,1.46 -0.2,-0.02 -0.41,-0.05 -0.61,-0.07 -0.09,-0.37 -0.16,-0.8 -0.5,-1.03 -0.52,-0.35 -1.28,-0.21 -1.66,0.28 -0.57,0.68 -0.72,1.59 -0.79,2.44 -0.03,0.69 -0.04,1.45 0.33,2.06 0.31,0.5 0.98,0.63 1.5,0.45 0.39,-0.17 0.56,-0.6 0.75,-0.95 0.2,0.02 0.41,0.05 0.61,0.07 -0.05,0.5 -0.11,1 -0.17,1.5 -0.91,0.11 -1.88,0.15 -2.76,-0.16 -0.83,-0.3 -1.31,-1.16 -1.39,-2 -0.1,-1.06 0.03,-2.17 0.53,-3.11z"/>
   <path class="fil0 str0" d="M49.08 90.66c1.52,-0.18 3.04,-0.31 4.56,-0.46 0.06,0.53 0.11,1.06 0.16,1.6 -0.21,0.02 -0.41,0.03 -0.61,0.05 -0.18,-0.33 -0.3,-0.8 -0.71,-0.89 -0.57,-0.02 -1.14,0.09 -1.71,0.14 0.07,0.75 0.15,1.5 0.22,2.25 0.39,-0.04 0.79,-0.05 1.17,-0.16 0.21,-0.15 0.19,-0.45 0.25,-0.67 0.2,-0.03 0.41,-0.05 0.61,-0.08 0.06,0.66 0.13,1.32 0.19,1.98 -0.2,0.02 -0.4,0.04 -0.59,0.06 -0.12,-0.22 -0.16,-0.53 -0.43,-0.62 -0.38,-0.02 -0.76,0.05 -1.14,0.08 0.08,0.83 0.17,1.66 0.24,2.49 0.56,-0.07 1.14,-0.07 1.69,-0.2 0.46,-0.22 0.44,-0.83 0.56,-1.25 0.21,-0.02 0.42,-0.04 0.63,-0.07 0.03,0.61 0.05,1.22 0.08,1.84 -1.5,0.15 -3.01,0.3 -4.51,0.44 -0.25,-0.5 0.51,-0.44 0.45,-0.87 -0.12,-1.63 -0.29,-3.26 -0.48,-4.88 -0.01,-0.31 -0.33,-0.35 -0.57,-0.42 -0.01,-0.09 -0.04,-0.28 -0.06,-0.37z"/>
   <path class="fil0 str0" d="M45.25 90.6c0.73,0.02 1.45,0.04 2.18,0.06 -0,0.1 -0.01,0.29 -0.02,0.38 -0.24,0.06 -0.56,0.16 -0.54,0.47 -0.07,1.6 -0.11,3.2 -0.13,4.81 -0.09,0.5 0.75,0.37 0.52,0.92 -0.73,-0.02 -1.45,-0.04 -2.18,-0.06 0,-0.1 0.01,-0.29 0.02,-0.38 0.25,-0.07 0.57,-0.17 0.54,-0.49 0.07,-1.59 0.1,-3.19 0.13,-4.78 0.1,-0.51 -0.74,-0.38 -0.52,-0.92z"/>
  </g>
 </g>
</svg>
